<svg width="940" height="547" viewBox="0 0 940 547" fill="none" xmlns="http://www.w3.org/2000/svg">
<path d="M523.979 169.576C500.282 111.28 457.105 63.0028 401.805 32.9718C346.504 2.94076 282.502 -6.98651 220.702 4.88146C158.903 16.7494 103.131 49.6784 62.8879 98.0576C22.6453 146.437 0.422489 207.273 0.00596322 270.2C-0.410562 333.127 21.005 394.252 60.6036 443.16C100.202 492.068 155.534 525.732 217.171 538.417C278.808 551.102 342.936 542.023 398.629 512.726C454.323 483.43 498.135 435.729 522.601 377.751L422.124 335.351C407.467 370.083 381.221 398.658 347.858 416.209C314.495 433.759 276.078 439.198 239.154 431.599C202.23 424 169.084 403.833 145.362 374.534C121.64 345.236 108.811 308.619 109.061 270.922C109.31 233.225 122.623 196.781 146.73 167.799C170.838 138.817 204.249 119.091 241.27 111.981C278.291 104.872 316.632 110.819 349.76 128.809C382.888 146.799 408.754 175.72 422.949 210.643L523.979 169.576Z" fill="#2D6DFC"/>
<path d="M939.979 172.576C916.282 114.28 873.105 66.0028 817.805 35.9718C762.504 5.94076 698.502 -3.98651 636.702 7.88146C574.903 19.7494 519.131 52.6784 478.888 101.058C438.645 149.437 416.422 210.273 416.006 273.2C415.589 336.127 437.005 397.252 476.604 446.16C516.202 495.068 571.534 528.732 633.171 541.417C694.808 554.102 758.936 545.023 814.629 515.726C870.323 486.43 914.135 438.729 938.601 380.751L838.124 338.351C823.467 373.083 797.221 401.658 763.858 419.209C730.495 436.759 692.078 442.198 655.154 434.599C618.23 427 585.084 406.833 561.362 377.534C537.64 348.236 524.811 311.619 525.061 273.922C525.31 236.225 538.623 199.781 562.73 170.799C586.838 141.817 620.249 122.091 657.27 114.981C694.291 107.872 732.632 113.819 765.76 131.809C798.888 149.799 824.754 178.72 838.949 213.643L939.979 172.576Z" fill="#7EA6FF"/>
<circle cx="678" cy="275" r="54" fill="#2D6DFC"/>
<path d="M864 220H890.795V312.661H940V331H864V220Z" fill="#7EA6FF"/>
</svg>
